<svg xmlns="http://www.w3.org/2000/svg" xmlns:xlink="http://www.w3.org/1999/xlink" enable-background="new 0 0 1080 1080" viewBox="0 0 1080 1080" id="cloud-data-transfer">
  <rect width="1080" height="1080" fill="none"></rect>
  <path fill="#8acebc" d="M990.85,941.69H215.48c-29.91,0-58.02-14.29-75.6-38.48C93.7,839.69,7.05,636.76,89.89,583.67
			c81.3-52.11,119.69-2.73,153.92-25.25c62.63-41.2-65.46-290.73,145.84-290.73c265.74,16.62,107.68,392.87,147.11,425.7
			c39.43,32.82,158.14-163.5,220.29-52.63C808.81,733.1,535.2,760.72,597.1,827.93c24.73,26.85,425.08-64.81,446.8,50.75
			C1050.06,911.51,1024.24,941.69,990.85,941.69z" enable-background="new" opacity=".15"></path>
  <circle cx="265.46" cy="572.89" r="66.02" fill="#8acebc" enable-background="new" opacity=".15"></circle>
  <g opacity=".5">
    <path fill="#fff" d="M440.11,830.05h-92.02c-0.73,0-1.32,0.59-1.32,1.32v23.74v23.74v23.74c0,0.73,0.59,1.32,1.32,1.32h92.02
			c0.73,0,1.32-0.59,1.32-1.32v-23.74v-23.74v-23.74C441.43,830.65,440.83,830.05,440.11,830.05z M349.41,856.43h89.38v21.1h-89.38
			V856.43z M349.41,832.69h89.38v21.1h-89.38V832.69z M438.79,901.26h-89.38v-21.1h89.38V901.26z"></path>
    <path fill="#fff" d="M425.59 840.03c-1.3 0-2.43.78-2.92 1.89H381.1c-.73 0-1.32.59-1.32 1.32 0 .73.59 1.32 1.32 1.32h41.57c.51 1.12 1.62 1.89 2.92 1.89 1.78 0 3.21-1.44 3.21-3.21C428.81 841.47 427.37 840.03 425.59 840.03zM367.87 836.46c-.73 0-1.32.59-1.32 1.32v12.01c0 .73.59 1.32 1.32 1.32.73 0 1.32-.59 1.32-1.32v-12.01C369.19 837.05 368.6 836.46 367.87 836.46zM362.16 836.46c-.73 0-1.32.59-1.32 1.32v12.01c0 .73.59 1.32 1.32 1.32.73 0 1.32-.59 1.32-1.32v-12.01C363.48 837.05 362.88 836.46 362.16 836.46zM356.44 836.46c-.73 0-1.32.59-1.32 1.32v12.01c0 .73.59 1.32 1.32 1.32.73 0 1.32-.59 1.32-1.32v-12.01C357.77 837.05 357.17 836.46 356.44 836.46zM425.59 863.76c-1.3 0-2.43.78-2.92 1.89H381.1c-.73 0-1.32.59-1.32 1.32 0 .73.59 1.32 1.32 1.32h41.57c.51 1.12 1.62 1.89 2.92 1.89 1.78 0 3.21-1.44 3.21-3.21C428.81 865.21 427.37 863.76 425.59 863.76zM367.87 860.2c-.73 0-1.32.59-1.32 1.32v12.01c0 .73.59 1.32 1.32 1.32.73 0 1.32-.59 1.32-1.32v-12.01C369.19 860.79 368.6 860.2 367.87 860.2zM362.16 860.2c-.73 0-1.32.59-1.32 1.32v12.01c0 .73.59 1.32 1.32 1.32.73 0 1.32-.59 1.32-1.32v-12.01C363.48 860.79 362.88 860.2 362.16 860.2zM356.44 860.2c-.73 0-1.32.59-1.32 1.32v12.01c0 .73.59 1.32 1.32 1.32.73 0 1.32-.59 1.32-1.32v-12.01C357.77 860.79 357.17 860.2 356.44 860.2zM381.09 892.04h41.57c.51 1.12 1.62 1.89 2.92 1.89 1.78 0 3.21-1.44 3.21-3.21 0-1.78-1.44-3.21-3.21-3.21-1.3 0-2.43.78-2.92 1.89h-41.57c-.73 0-1.32.59-1.32 1.32C379.77 891.45 380.37 892.04 381.09 892.04zM367.87 898.6c.73 0 1.32-.59 1.32-1.32v-12.01c0-.73-.59-1.32-1.32-1.32-.73 0-1.32.59-1.32 1.32v12.01C366.55 898.01 367.14 898.6 367.87 898.6zM362.16 898.6c.73 0 1.32-.59 1.32-1.32v-12.01c0-.73-.59-1.32-1.32-1.32-.73 0-1.32.59-1.32 1.32v12.01C360.83 898.01 361.42 898.6 362.16 898.6zM356.44 898.6c.73 0 1.32-.59 1.32-1.32v-12.01c0-.73-.59-1.32-1.32-1.32-.73 0-1.32.59-1.32 1.32v12.01C355.12 898.01 355.71 898.6 356.44 898.6z"></path>
  </g>
  <path fill="#e6e6e6" d="M139.73 593.57c-.26 0-.53-.05-.78-.17-.95-.43-1.37-1.55-.94-2.5 1.33-2.93 2.74-5.93 4.19-8.93.45-.94 1.58-1.33 2.52-.88.94.45 1.33 1.58.88 2.52-1.43 2.97-2.83 5.95-4.15 8.86C141.14 593.16 140.45 593.57 139.73 593.57zM152.84 567.12c-.3 0-.61-.07-.89-.22-.92-.49-1.27-1.64-.77-2.56 3.1-5.79 6.37-11.59 9.71-17.24.53-.9 1.69-1.2 2.59-.66.9.53 1.19 1.69.66 2.59-3.32 5.61-6.56 11.36-9.63 17.11C154.17 566.76 153.52 567.12 152.84 567.12zM172.9 533.2c-.35 0-.71-.1-1.03-.31-.87-.57-1.12-1.74-.55-2.61 3.58-5.5 7.32-11.01 11.13-16.36.61-.85 1.78-1.05 2.63-.44.85.61 1.05 1.78.44 2.63-3.78 5.31-7.49 10.77-11.04 16.23C174.13 532.9 173.52 533.2 172.9 533.2zM195.75 501.09c-.4 0-.81-.13-1.16-.4-.82-.64-.97-1.83-.33-2.65 4.03-5.18 8.22-10.35 12.46-15.36.67-.8 1.87-.9 2.66-.22.8.67.9 1.87.22 2.66-4.21 4.97-8.37 10.1-12.36 15.24C196.87 500.84 196.31 501.09 195.75 501.09zM221.2 471.03c-.46 0-.92-.17-1.28-.5-.77-.71-.82-1.9-.11-2.67 4.44-4.82 9.05-9.62 13.7-14.26.74-.74 1.93-.74 2.67 0 .74.74.74 1.93 0 2.67-4.61 4.61-9.18 9.37-13.59 14.15C222.21 470.82 221.71 471.03 221.2 471.03zM249.07 443.2c-.51 0-1.02-.21-1.39-.61-.71-.77-.65-1.96.11-2.67 4.83-4.44 9.83-8.84 14.84-13.07.8-.67 1.99-.57 2.66.22.67.8.57 1.99-.22 2.66-4.97 4.2-9.92 8.56-14.72 12.96C249.98 443.03 249.52 443.2 249.07 443.2zM279.15 417.79c-.56 0-1.12-.25-1.49-.73-.64-.82-.49-2.01.34-2.65 5.19-4.02 10.53-7.98 15.87-11.78.85-.6 2.03-.41 2.63.45.6.85.4 2.03-.45 2.63-5.3 3.77-10.6 7.7-15.75 11.69C279.96 417.66 279.56 417.79 279.15 417.79zM311.25 394.99c-.62 0-1.22-.3-1.59-.86-.57-.88-.32-2.05.56-2.61 5.5-3.57 11.15-7.08 16.8-10.42.9-.53 2.06-.23 2.59.66.53.9.23 2.06-.66 2.59-5.6 3.31-11.21 6.79-16.66 10.33C311.96 394.89 311.6 394.99 311.25 394.99zM345.12 374.95c-.67 0-1.33-.36-1.67-1-.49-.92-.15-2.06.77-2.56 5.78-3.1 11.71-6.12 17.6-8.98.94-.45 2.07-.06 2.52.88.45.94.06 2.07-.88 2.52-5.85 2.83-11.73 5.83-17.46 8.9C345.73 374.87 345.42 374.95 345.12 374.95zM380.55 357.81c-.73 0-1.43-.43-1.73-1.14-.41-.96.03-2.07.98-2.48 6.02-2.6 12.17-5.12 18.29-7.47.97-.37 2.07.11 2.44 1.09.37.97-.11 2.07-1.09 2.44-6.07 2.33-12.18 4.82-18.14 7.41C381.05 357.76 380.8 357.81 380.55 357.81zM417.27 343.71c-.79 0-1.52-.5-1.79-1.29-.33-.99.2-2.06 1.19-2.39 6.22-2.09 12.56-4.08 18.85-5.9 1-.29 2.05.29 2.34 1.29.29 1-.29 2.05-1.29 2.34-6.24 1.81-12.53 3.78-18.7 5.85C417.68 343.68 417.47 343.71 417.27 343.71zM707.7 341.08c-.19 0-.38-.03-.57-.09-6.21-1.95-12.55-3.8-18.83-5.48-1.01-.27-1.6-1.31-1.33-2.31.27-1.01 1.31-1.6 2.31-1.33 6.34 1.7 12.73 3.56 18.99 5.53 1 .31 1.55 1.37 1.24 2.37C709.24 340.56 708.5 341.08 707.7 341.08zM455.04 332.76c-.85 0-1.62-.58-1.83-1.44-.25-1.01.37-2.04 1.39-2.28 6.36-1.56 12.85-3 19.27-4.29 1.02-.21 2.02.46 2.22 1.48.21 1.02-.46 2.02-1.48 2.22-6.37 1.28-12.8 2.71-19.12 4.25C455.34 332.74 455.19 332.76 455.04 332.76zM669.66 330.86c-.14 0-.28-.01-.41-.05-6.35-1.42-12.81-2.73-19.23-3.89-1.03-.19-1.71-1.17-1.52-2.19.19-1.03 1.16-1.71 2.19-1.52 6.46 1.17 12.98 2.48 19.38 3.92 1.02.23 1.66 1.24 1.43 2.26C671.31 330.27 670.53 330.86 669.66 330.86zM493.59 325.03c-.91 0-1.72-.67-1.86-1.6-.16-1.03.54-2 1.57-2.16 6.46-1.01 13.04-1.9 19.55-2.65 1.03-.12 1.97.63 2.09 1.66s-.63 1.97-1.66 2.09c-6.46.74-12.99 1.62-19.4 2.62C493.78 325.02 493.68 325.03 493.59 325.03zM630.91 323.87c-.09 0-.17-.01-.26-.02-3.88-.54-7.84-1.03-11.76-1.47-2.55-.29-5.15-.56-7.72-.81-1.04-.1-1.8-1.02-1.7-2.06.1-1.04 1.02-1.8 2.06-1.7 2.59.25 5.21.52 7.78.81 3.95.44 7.94.94 11.86 1.48 1.03.14 1.76 1.1 1.61 2.13C632.65 323.18 631.84 323.87 630.91 323.87zM532.67 320.58c-.98 0-1.81-.76-1.88-1.75-.07-1.04.71-1.94 1.75-2.02 6.54-.47 13.19-.8 19.74-.99 1.05-.02 1.91.79 1.94 1.83.03 1.04-.79 1.91-1.83 1.94-6.51.19-13.09.52-19.59.98C532.76 320.58 532.71 320.58 532.67 320.58zM591.71 320.1c-.03 0-.07 0-.1 0-6.5-.36-13.1-.58-19.6-.66-1.04-.01-1.88-.87-1.86-1.91.01-1.03.86-1.86 1.89-1.86.01 0 .02 0 .02 0 6.56.08 13.21.31 19.76.67 1.04.06 1.84.95 1.78 1.99C593.54 319.32 592.71 320.1 591.71 320.1zM735.76 350.88c-.23 0-.46-.04-.68-.13-2.81-1.09-5.81-2.21-9.16-3.42-.98-.36-1.49-1.44-1.13-2.42.36-.98 1.44-1.49 2.42-1.13 3.38 1.22 6.4 2.35 9.23 3.45.97.38 1.46 1.47 1.08 2.44C737.23 350.42 736.52 350.88 735.76 350.88zM394.1 601.3c-.15 0-.29-.02-.44-.05-1.01-.24-1.64-1.26-1.4-2.28.75-3.14 1.58-6.36 2.45-9.57.28-1.01 1.31-1.6 2.32-1.32 1.01.28 1.6 1.31 1.32 2.32-.87 3.18-1.68 6.36-2.43 9.45C395.72 600.72 394.95 601.3 394.1 601.3zM402.45 572.89c-.21 0-.42-.03-.63-.11-.98-.35-1.5-1.42-1.16-2.41 2.19-6.24 4.63-12.49 7.25-18.57.41-.96 1.52-1.4 2.48-.99.96.41 1.4 1.52.99 2.48-2.58 6-4.99 12.16-7.15 18.32C403.96 572.41 403.23 572.89 402.45 572.89zM418.11 536.54c-.29 0-.59-.07-.86-.21-.93-.48-1.29-1.62-.81-2.54 3.03-5.88 6.3-11.73 9.73-17.4.54-.89 1.7-1.18 2.59-.64.89.54 1.18 1.7.64 2.59-3.38 5.59-6.61 11.37-9.6 17.17C419.45 536.17 418.79 536.54 418.11 536.54zM438.59 502.68c-.38 0-.75-.11-1.08-.34-.85-.6-1.06-1.78-.46-2.63 3.8-5.41 7.84-10.76 12.01-15.9.66-.81 1.85-.94 2.66-.28.81.66.94 1.85.28 2.66-4.11 5.08-8.1 10.36-11.85 15.7C439.77 502.4 439.19 502.68 438.59 502.68zM463.51 471.93c-.46 0-.92-.17-1.29-.51-.76-.71-.81-1.91-.1-2.67 4.51-4.85 9.24-9.6 14.06-14.12.76-.71 1.96-.68 2.67.09.71.76.68 1.96-.09 2.67-4.76 4.46-9.43 9.15-13.88 13.94C464.52 471.73 464.01 471.93 463.51 471.93zM492.38 444.86c-.55 0-1.09-.24-1.46-.69-.66-.81-.54-2 .27-2.66 5.12-4.18 10.46-8.25 15.86-12.07.85-.6 2.03-.4 2.63.45s.4 2.03-.45 2.63c-5.33 3.77-10.59 7.78-15.65 11.91C493.22 444.72 492.8 444.86 492.38 444.86zM524.67 421.99c-.64 0-1.26-.32-1.61-.91-.54-.89-.26-2.05.63-2.6 5.65-3.44 11.49-6.73 17.36-9.78.93-.48 2.07-.12 2.55.81.48.93.12 2.07-.81 2.55-5.79 3-11.56 6.25-17.14 9.65C525.35 421.9 525.01 421.99 524.67 421.99zM559.8 403.78c-.73 0-1.43-.43-1.73-1.14-.41-.96.02-2.07.98-2.48 6.07-2.63 12.31-5.08 18.54-7.29.98-.35 2.06.17 2.41 1.15.35.98-.17 2.06-1.15 2.41-6.15 2.18-12.31 4.6-18.3 7.19C560.31 403.73 560.05 403.78 559.8 403.78zM597.1 390.59c-.83 0-1.59-.55-1.82-1.38-.28-1.01.31-2.05 1.31-2.33 6.37-1.77 12.89-3.34 19.37-4.66 1.02-.21 2.02.45 2.23 1.47.21 1.02-.45 2.02-1.47 2.23-6.4 1.31-12.83 2.86-19.12 4.6C597.44 390.57 597.27 390.59 597.1 390.59zM635.87 382.65c-.93 0-1.74-.69-1.87-1.64-.14-1.03.59-1.98 1.62-2.12 5-.67 10.1-1.22 15.15-1.64 1.56-.13 3.12-.24 4.68-.35 1.03-.07 1.94.72 2.01 1.76.07 1.04-.72 1.94-1.76 2.01-1.54.1-3.08.22-4.62.34-4.98.41-10.01.95-14.95 1.62C636.03 382.64 635.95 382.65 635.87 382.65zM695.15 380.75c-.05 0-.09 0-.14 0-6.5-.46-13.12-.7-19.66-.71-1.04 0-1.89-.85-1.89-1.89 0-1.04.85-1.89 1.89-1.89 0 0 0 0 0 0 6.63.01 13.33.25 19.92.72 1.04.07 1.82.98 1.75 2.02C696.96 379.99 696.13 380.75 695.15 380.75zM724.63 384.37c-.11 0-.22-.01-.33-.03-3.26-.57-6.5-1.09-9.64-1.52-1.03-.14-1.75-1.1-1.61-2.13.14-1.03 1.1-1.75 2.13-1.61 3.18.44 6.47.96 9.77 1.54 1.03.18 1.71 1.16 1.53 2.19C726.32 383.72 725.53 384.37 724.63 384.37z"></path>
  <polygon fill="#8eafbf" points="420.89 488.96 450.61 497.55 456.75 518.35 406.31 530.05 401.04 512.15"></polygon>
  <rect width="43.36" height="31.64" x="404.5" y="491.18" fill="#f2f2f2" transform="rotate(-16.416 426.196 507.015)"></rect>
  <rect width="34.45" height=".51" x="406.19" y="496.45" fill="#8a8b8b" transform="rotate(-16.416 423.427 496.72)"></rect>
  <rect width="34.45" height=".51" x="407.39" y="500.54" fill="#8a8b8b" transform="rotate(-16.416 424.628 500.809)"></rect>
  <rect width="34.45" height=".51" x="408.6" y="504.63" fill="#8a8b8b" transform="rotate(-16.416 425.839 504.903)"></rect>
  <rect width="34.45" height=".51" x="409.8" y="508.72" fill="#8a8b8b" transform="rotate(-16.416 427.04 508.992)"></rect>
  <rect width="34.45" height=".51" x="411.01" y="512.81" fill="#8a8b8b" transform="rotate(-16.416 428.248 513.078)"></rect>
  <rect width="34.45" height=".51" x="412.21" y="516.9" fill="#8a8b8b" transform="rotate(-16.416 429.449 517.167)"></rect>
  <polygon fill="#a6d8f7" points="458.93 525.77 409.35 540.37 401.04 512.15 428.43 513.67 450.61 497.55"></polygon>
  <polygon fill="#a6d8f7" points="604.06 753.89 560.24 731.98 560.24 742.61 457.73 742.61 457.73 765.18 560.24 765.18 560.24 775.8"></polygon>
  <polygon fill="#a6d8f7" points="457.73 797.7 501.55 819.61 501.55 808.99 604.06 808.99 604.06 786.41 501.55 786.41 501.55 775.8"></polygon>
  <g>
    <polygon fill="#ddb510" points="514.35 392.54 604.06 366.11 601.33 356.87 517.54 381.55"></polygon>
    <rect width="71.14" height="97.48" x="535.49" y="343.81" fill="#f2f2f2" transform="rotate(-16.416 571.08 392.561)"></rect>
    <rect width="54.29" height="1.13" x="534.68" y="354.15" fill="#8a8b8b" transform="rotate(-16.416 561.848 354.729)"></rect>
    <rect width="54.29" height="1.13" x="537.4" y="363.34" fill="#8a8b8b" transform="rotate(-16.416 564.56 363.922)"></rect>
    <rect width="54.29" height="1.13" x="540.1" y="372.53" fill="#8a8b8b" transform="rotate(-16.416 567.264 373.112)"></rect>
    <rect width="54.29" height="1.13" x="550.87" y="409.1" fill="#8a8b8b" transform="rotate(-16.416 578.039 409.682)"></rect>
    <rect width="54.29" height="1.13" x="553.6" y="418.35" fill="#8a8b8b" transform="rotate(-16.416 580.766 418.93)"></rect>
    <rect width="54.29" height="1.13" x="542.81" y="381.73" fill="#8a8b8b" transform="rotate(-16.416 569.977 382.306)"></rect>
    <rect width="54.29" height="1.13" x="545.52" y="390.92" fill="#8a8b8b" transform="rotate(-16.416 572.683 391.502)"></rect>
    <rect width="54.29" height="1.13" x="548.23" y="400.11" fill="#8a8b8b" transform="rotate(-16.416 575.394 400.689)"></rect>
    <polygon fill="#fed710" points="626.53 436.97 528.6 465.83 506.43 394.88 606.69 365.34"></polygon>
  </g>
  <g>
    <path fill="#f2f2f2" d="M329.82,322.01c-2.34,0-4.25,1.9-4.25,4.25v87.72c0,2.34,1.9,4.25,4.25,4.25h58.11c2.34,0,4.25-1.9,4.25-4.25
			v-84.29l-7.52-7.69L329.82,322.01L329.82,322.01z"></path>
    <rect width="43.08" height="3.14" x="337.33" y="399.56" fill="#666"></rect>
    <rect width="43.08" height="3.14" x="337.33" y="387.16" fill="#666"></rect>
    <rect width="43.08" height="3.14" x="337.33" y="374.75" fill="#666"></rect>
    <rect width="43.08" height="3.14" x="337.33" y="362.34" fill="#666"></rect>
    <rect width="43.08" height="3.14" x="337.33" y="349.93" fill="#666"></rect>
    <rect width="16.6" height="3.14" x="337.33" y="337.52" fill="#666"></rect>
    <polygon fill="#ccc" points="392.27 329.69 384.66 322.09 384.66 329.69"></polygon>
  </g>
  <g>
    <path fill="#f2f2f2" d="M200.75,413.65c-1.99,0-3.61,1.62-3.61,3.61v74.67c0,1.99,1.62,3.61,3.61,3.61h49.47
			c1.99,0,3.61-1.62,3.61-3.61V420.2l-6.4-6.54L200.75,413.65L200.75,413.65z"></path>
    <rect width="36.68" height="2.67" x="207.14" y="479.66" fill="#666"></rect>
    <rect width="36.68" height="2.67" x="207.14" y="469.1" fill="#666"></rect>
    <rect width="36.68" height="2.67" x="207.14" y="458.54" fill="#666"></rect>
    <rect width="36.68" height="2.67" x="207.14" y="447.97" fill="#666"></rect>
    <rect width="36.68" height="2.67" x="207.14" y="437.41" fill="#666"></rect>
    <rect width="14.13" height="2.67" x="207.14" y="426.85" fill="#666"></rect>
    <polygon fill="#ccc" points="253.9 420.19 247.42 413.72 247.42 420.19"></polygon>
  </g>
  <g>
    <path fill="#f2f2f2" d="M125.35,545.21c-1.65,0-3.01,1.34-3.01,3.01v62.13c0,1.65,1.34,3.01,3.01,3.01h41.16
			c1.65,0,3.01-1.34,3.01-3.01v-59.68l-5.33-5.45L125.35,545.21L125.35,545.21z"></path>
    <rect width="30.51" height="2.23" x="130.68" y="600.13" fill="#666"></rect>
    <rect width="30.51" height="2.23" x="130.68" y="591.35" fill="#666"></rect>
    <rect width="30.51" height="2.23" x="130.68" y="582.56" fill="#666"></rect>
    <rect width="30.51" height="2.23" x="130.68" y="573.77" fill="#666"></rect>
    <rect width="30.51" height="2.23" x="130.68" y="564.98" fill="#666"></rect>
    <rect width="11.76" height="2.23" x="130.68" y="556.2" fill="#666"></rect>
    <polygon fill="#ccc" points="169.57 550.66 164.19 545.27 164.19 550.66"></polygon>
  </g>
  <circle cx="855.1" cy="180.82" r="80.15" fill="#8acebc" enable-background="new" opacity=".15"></circle>
  <circle cx="940.4" cy="168.32" r="43.01" fill="#8acebc" enable-background="new" opacity=".05"></circle>
  <g>
    <path fill="#a6d8f7" d="M875.01,221.28h12.92c18.97,0,34.36-15.38,34.36-34.36s-15.38-34.36-34.36-34.36c-4.59,0-8.95,0.9-12.96,2.53
			c-0.41-18.62-15.63-33.59-34.35-33.59s-33.94,14.97-34.35,33.59c-4-1.63-8.37-2.53-12.96-2.53c-18.97,0-34.36,15.38-34.36,34.36
			s15.38,34.36,34.36,34.36h12.91"></path>
    <polyline fill="#fff" points="842.08 206.7 842.08 230.65 832.58 230.65 847.66 245.73 862.75 230.65 853.25 230.65 853.25 206.7"></polyline>
    <polyline fill="#fff" points="828 226.16 828 202.25 818.5 202.25 833.58 187.17 848.66 202.25 839.17 202.25 839.17 226.13"></polyline>
  </g>
  <g>
    <path fill="#f2f2f2" d="M811.52,267.69c-2.34,0-4.25,1.9-4.25,4.25v87.72c0,2.34,1.9,4.25,4.25,4.25h58.11c2.34,0,4.25-1.9,4.25-4.25
			v-84.28l-7.52-7.69H811.52z"></path>
    <rect width="43.08" height="3.14" x="819.03" y="345.24" fill="#666"></rect>
    <rect width="43.08" height="3.14" x="819.03" y="332.84" fill="#666"></rect>
    <rect width="43.08" height="3.14" x="819.03" y="320.43" fill="#666"></rect>
    <rect width="43.08" height="3.14" x="819.03" y="308.02" fill="#666"></rect>
    <rect width="43.08" height="3.14" x="819.03" y="295.61" fill="#666"></rect>
    <rect width="16.6" height="3.14" x="819.03" y="283.2" fill="#666"></rect>
    <polygon fill="#ccc" points="873.97 275.38 866.36 267.77 866.36 275.38"></polygon>
  </g>
  <path fill="#e6f2ff" d="M294.96,950.29c0,0-0.1,2.48-1.05,3.15v-3.15H294.96z"></path>
  <g>
    <rect width="228.04" height="531.58" x="677.78" y="440.14" fill="#4d4d4d"></rect>
    <polygon fill="#333" points="905.82 440.14 951.33 414.61 951.33 925.9 905.82 971.71"></polygon>
    <polygon fill="gray" points="677.78 440.14 744.47 414.61 951.33 414.61 905.82 440.14"></polygon>
    <rect width="190.21" height="44.14" x="696.7" y="465.17" fill="#666"></rect>
    <rect width="95.11" height="25.57" x="774.95" y="474.46" fill="gray"></rect>
    <circle cx="749.82" cy="487.24" r="8.56" fill="#218c74"></circle>
    <circle cx="722.11" cy="487.24" r="8.56" fill="#cc2e2e"></circle>
    <rect width="190.21" height="44.14" x="696.7" y="526.36" fill="#666"></rect>
    <rect width="95.11" height="25.57" x="774.95" y="535.64" fill="gray"></rect>
    <circle cx="749.82" cy="548.43" r="8.56" fill="#218c74"></circle>
    <circle cx="722.11" cy="548.43" r="8.56" fill="#cc2e2e"></circle>
    <g>
      <rect width="190.21" height="44.14" x="696.7" y="587.55" fill="#666"></rect>
      <rect width="95.11" height="25.57" x="774.95" y="596.82" fill="gray"></rect>
      <circle cx="749.82" cy="609.61" r="8.56" fill="#218c74"></circle>
      <circle cx="722.11" cy="609.61" r="8.56" fill="#cc2e2e"></circle>
    </g>
    <g>
      <rect width="190.21" height="44.14" x="696.7" y="648.72" fill="#666"></rect>
      <rect width="95.11" height="25.57" x="774.95" y="658.01" fill="gray"></rect>
      <circle cx="749.82" cy="670.8" r="8.56" fill="#218c74"></circle>
      <circle cx="722.11" cy="670.8" r="8.56" fill="#cc2e2e"></circle>
    </g>
    <g>
      <rect width="190.21" height="44.14" x="696.7" y="709.91" fill="#666"></rect>
      <rect width="95.11" height="25.57" x="774.95" y="719.2" fill="gray"></rect>
      <circle cx="749.82" cy="731.98" r="8.56" fill="#218c74"></circle>
      <circle cx="722.11" cy="731.98" r="8.56" fill="#cc2e2e"></circle>
    </g>
  </g>
  <g>
    <path fill="#333" d="M280.23,956.93c0,0-8.96,22.37-9.38,30.09c-0.24,4.53,0.3,6.09,1.84,6.86c1.18,0.59,16.43,0.73,23.45,0.76
				c2.15,0.01,3.96-1.58,4.27-3.71c0.23-1.59-0.04-4.81-0.3-6.18c-0.67-3.46-3.44-20.01-4.62-27.29c-0.26-1.64-1.68-2.84-3.35-2.84
				h-8.7C281.99,954.63,280.7,955.56,280.23,956.93L280.23,956.93z"></path>
    <path fill="#f7c5a0" d="M292.42 959.33c-2.83 1.91-6.57 1.83-9.32-.22l-1.5-12.12h12.31L292.42 959.33zM356.41 619.84c0 0 2.59 32.09 9.01 33.84 6.41 1.75 56.89-3.56 56.89-3.56h21.59c0 0-4.96 8.81-11.38 7.93s-12.54-2.33-12.54-2.33-51.98 15.75-62.02 12.26c-10.03-3.5-14.43-38.6-14.43-38.6L356.41 619.84z"></path>
    <path fill="#fed710" d="M346.6,598.91c6.66,2.31,10.68,17.87,12.32,24.87c1.63,7,2.89,15.36,2.89,15.36l-15.19,0.58
				C346.62,639.73,341.82,597.25,346.6,598.91z"></path>
    <path fill="#f7c5a0" d="M332.74,943.42l1.54,23.87c0,0,1.25,3.08,6.93,2.31c5.68-0.77,5.39-3.85,5.39-3.85l3.08-22.33
				L332.74,943.42L332.74,943.42z"></path>
    <path fill="#333" d="M332.43,959.55c-0.85-0.26-1.73,0.32-1.88,1.19c-0.79,4.53-2.92,17.45-1.65,18.08
				c1.54,0.77,16.17,0.77,20.02,2.31c3.85,1.54,11.55,5.39,20.02,4.62c8.47-0.77,19.24-0.77,19.24-3.08s-0.14-7.6-5.46-10.34
				c-5.32-2.74-13.79-2.74-17.64-8.9c-3.85-6.16-6.07-10.01-8.42-11.55c-2.36-1.54-7.06-2.31-8.17,0c-1.11,2.31-1.5,5.77-1.5,5.77
				s-3.46-0.39-5,1.93c-1.54,2.31-5.39,4.62-6.93,3.08C333.73,961.34,334.96,960.3,332.43,959.55z"></path>
    <polygon fill="#534741" points="325.81 824.47 313.5 744.41 309.65 712.07 355.07 715.16 357.38 826.79 351.22 947.65 330.79 947.65"></polygon>
    <polygon fill="#736357" points="333.13 706.3 319.65 821.39 297.33 951.49 278.57 951.49 279.62 814.46 278.85 704.37"></polygon>
    <path fill="#fed710" d="M270.38,734.4c0,0,54.62,6.21,88.53-3.08c0,0-5.61-63.75-7.7-92.39c-2.09-28.64-4.62-40.03-4.62-40.03
				l-25.4-9.24c0,0-0.69,7-12.88,6.41c-12.2-0.58-12.53-10.26-12.53-10.26l-25.4,8.47c0,0,10.64,38.38,9.48,61.6
				C278.7,679.12,270.38,734.4,270.38,734.4z"></path>
    <path fill="#ddb510" d="M298.1,584.28c0,0-3.08,0-3.85,0.77c-2.18,2.18,3.08,11.55,14.63,11.55c12.32,0,14.05-5.33,13.96-6.91
				C322.74,588.12,298.1,584.28,298.1,584.28z"></path>
    <path fill="#f7c5a0" d="M298.36,587.51c0,0-0.33-24.07-0.33-27.04c0,0,7.01,10.35,14.36,13.69c7.34,3.34,6.35,3.01,6.35,3.01
				l-0.33,13.69c0,0-3.34,2.67-8.01,2.67C300.34,593.51,298.36,587.51,298.36,587.51z"></path>
    <path fill="#34234f" d="M307.71,536.09c0,0,5.72,2,16.55,3.67c10.83,1.67,12.16-1,12.16-1s-4.68-18.03-20.7-17.36
				c-16.03,0.66-22.87,10.08-24.04,17.36c-2.67,16.69,2.67,20.03,2.67,20.03l4,14.69c0,0,0-24.71,1.34-24.04
				c1.34,0.66,1.28,6.58,1.28,6.58h2.78c0,0-1.4-6.58,1.28-9.92C307.71,542.77,307.71,536.09,307.71,536.09z"></path>
    <path fill="#f7c5a0" d="M302.37,573.48c0,0,5.34,8.68,16.69,8.68c5.39,0,9.35-3.34,12.69-13.36c3.34-10.02,1.34-30.39,0-30.89
				c-1.34-0.5-26.71-4.5-26.71-4.5l-7.34,10.02C297.69,543.43,295.02,564.14,302.37,573.48z"></path>
    <path fill="#34234f" d="M301.03,532.09c0,0,1.47,8.43,16.36,10.35c20.7,2.67,23.37-6.68,23.37-6.68s-4,0-10.68-8.02
				C324.52,521.08,301.03,532.09,301.03,532.09z"></path>
    <path fill="#34234f" d="M314.06,538.43c0,0-2.67,6.01-8.68,10.02c-2.36,1.57-1.34,12.02-1.34,12.02l-2.3,1
				c0,0,0.67-9.09-1.04-11.02c-1.67-1.87-2,3.34-2,3.34l-4.34-7.68c0,0,3.68-8.24,5.85-10.46
				C302.37,533.42,314.06,538.43,314.06,538.43z"></path>
    <path fill="#f7c5a0" d="M300.2 553.61c0 0-1.17-6.17-5.18-4.84-4 1.34-3.26 8.32-1.34 11.35 2.33 3.67 6.35 4.34 6.35 4.34M319.06 582.17c-5.27.36-10.65-1.97-14.24-5.78C309.08 579.35 313.9 581.46 319.06 582.17L319.06 582.17z"></path>
    <path fill="#f7c5a0" d="M294.69,551.12c-0.69,4.15-0.04,8.56,4,10.68C294,560.73,292.81,555.02,294.69,551.12L294.69,551.12z"></path>
    <path fill="#ddb510" d="M274.26 707.05c0 0 8.83-22.3 10.37-39.24.39-4.33 2.76-18.12 2.12-31.19-.88-18.38-9.82-22.7-9.82-22.7s4.51 33.8 2.64 48.47C277.7 677.04 274.26 707.05 274.26 707.05zM346.62 601.61c3.93 12.29 4.45 25.3 4.6 38.12-1.1-6.32-1.78-12.7-2.36-19.09C348.34 614.29 347.23 607.98 346.62 601.61L346.62 601.61z"></path>
    <path fill="#b3b3b3" d="M371.09,649.47v1.64c0,0,26.11,1.02,30.85,1.1c4.74,0.08,68.63-2.74,68.63-2.74l1.01-0.71l-61.19-3.48
				L371.09,649.47z"></path>
    <path fill="gray" d="M410.9,645.22l-0.51,2.1c0,0-12.1,2.19-19.03,3.06c-6.93,0.88-20.27,0.73-20.27,0.73v-1.64L410.9,645.22z"></path>
    <path fill="#ccc" d="M462.12,594.88c0,0,25.77,1.07,27.31,1.07c1.53,0,1.54,1.54,0.77,3.85c-0.77,2.31-16.94,46.19-17.7,47.73
				c-0.77,1.54-0.77,1.54-4.62,1.54s-54.66-0.77-56.2-0.77c-1.54,0-1.54-0.77-0.77-3.08s16.17-47.73,16.94-50.04
				c0.77-2.31,3.02-1.54,8.47-1.54C444.78,593.64,462.12,594.88,462.12,594.88z"></path>
    <path fill="#f7c5a0" d="M279.24,639.73c0,0-3.29,26.55-3.29,30.43c0,3.88,10.91,61.66,10.91,61.66s5.23,2.72,3.87,7.59
				s-7.34,13.52-8.22,8.07c-0.88-5.45-3.94-15.07-3.94-15.07s-16.43-56.01-16.63-62.62c-0.2-6.61,0-32.67,0-32.67L279.24,639.73z"></path>
    <path fill="#fed710" d="M271.21,593.85c3.08-0.48,6.58,4.66,9.08,9.3c2.18,4.05,3.35,8.58,3.45,13.18l-0.26,28l-26.17,1.54
				C257.3,645.87,258.81,595.8,271.21,593.85z"></path>
  </g>
</svg>
